<svg width="26px" height="26px" viewBox="0 0 26 26" version="1.1" xmlns="http://www.w3.org/2000/svg" xmlns:xlink="http://www.w3.org/1999/xlink">
    <g id="Symbols" stroke="none" stroke-width="1" fill="none" fill-rule="evenodd">
        <g id="icon-help" transform="translate(1.000000, 1.000000)">
            <g>
                <circle id="Oval" stroke="#FF585D" stroke-width="2" stroke-linecap="round" stroke-linejoin="round" cx="12" cy="12" r="12"></circle>
                <path d="M11.0866667,13.5266667 C11.0866667,12.3 11.8533333,11.88 13.0866667,11.24 C14.1333333,10.7 14.7533333,10.2866667 14.7533333,9.24 C14.7533333,7.90666667 13.8,7.04 12.0333333,7.04 C10.58,7.04 9.46666667,7.66 9.26,9.55333333 L7.8,9.55333333 C8.02,6.88666667 9.8,5.7 12.08,5.7 C14.5066667,5.7 16.2066667,7.03333333 16.2066667,9.20666667 C16.2066667,10.9 15.1666667,11.58 13.88,12.2533333 C13.08,12.6733333 12.4933333,13 12.4933333,13.8 L12.4933333,14.4666667 L11.0866667,14.4666667 L11.0866667,13.5266667 Z M10.7933333,17.22 C10.7715165,16.8005852 11.0073517,16.4101737 11.3887474,16.2343268 C11.770143,16.05848 12.2201838,16.1326605 12.5249667,16.4216105 C12.8297496,16.7105605 12.9278097,17.1560082 12.7725395,17.5462336 C12.6172692,17.936459 12.2399815,18.1927663 11.82,18.1933333 C11.5522334,18.2099959 11.2895853,18.1146291 11.0948899,17.9300477 C10.9001944,17.7454663 10.7909652,17.4882741 10.7933333,17.22 L10.7933333,17.22 Z" id="Shape" fill="#FF585D" fill-rule="nonzero"></path>
            </g>
        </g>
    </g>
</svg>
