<svg width="25px" height="24px" viewBox="0 0 25 24" version="1.1" xmlns="http://www.w3.org/2000/svg" xmlns:xlink="http://www.w3.org/1999/xlink">
    <g id="Symbols" stroke="none" stroke-width="1" fill="none" fill-rule="evenodd">
        <g id="Main-Navigatiuon" transform="translate(-1068.000000, -24.000000)" fill="#999999">
            <g id="Group-2" transform="translate(958.000000, 16.000000)">
                <g id="icon-github" transform="translate(110.000000, 8.000000)">
                    <path d="M12.303308,0 C5.50925955,0 7.10542736e-15,5.50925955 7.10542736e-15,12.3048187 C7.10542736e-15,17.7400574 3.52504995,22.3520041 8.4149521,23.9789502 C9.03053292,24.091492 9.25486115,23.7123244 9.25486115,23.3860288 C9.25486115,23.0937223 9.24428675,22.3202809 9.23824424,21.293054 C5.81591699,22.0370382 5.0938369,19.6442038 5.0938369,19.6442038 C4.53414931,18.222703 3.72747407,17.8442908 3.72747407,17.8442908 C2.61036482,17.0806684 3.81206923,17.09653 3.81206923,17.09653 C5.04700744,17.1833911 5.69657739,18.3639467 5.69657739,18.3639467 C6.79404848,20.2446783 8.57583396,19.7016076 9.27752057,19.3866417 C9.38930702,18.5912962 9.70653886,18.0489808 10.0585151,17.7415681 C7.32654478,17.4311341 4.45408604,16.3759605 4.45408604,11.6605359 C4.45408604,10.3175878 4.93371036,9.2193614 5.72074744,8.35905887 C5.5938547,8.04786955 5.17163424,6.79706974 5.84084235,5.10365599 C5.84084235,5.10365599 6.87411175,4.77207319 9.22464859,6.36427488 C10.2058013,6.09160656 11.2587089,5.95489474 12.3048187,5.95036286 C13.3494178,5.95489474 14.4023253,6.09160656 15.3849887,6.36427488 C17.7340149,4.77207319 18.7650184,5.10365599 18.7650184,5.10365599 C19.4364924,6.79706974 19.014272,8.04786955 18.8873792,8.35905887 C19.675927,9.2193614 20.15253,10.3175878 20.15253,11.6605359 C20.15253,16.3872903 17.2755394,17.4273575 14.5345053,17.7325043 C14.9763639,18.1116719 15.3698824,18.8632092 15.3698824,20.010531 C15.3698824,21.6556047 15.3547762,22.9826912 15.3547762,23.3860288 C15.3547762,23.7145903 15.5760831,24.0975345 16.2007277,23.9774396 C21.0853427,22.3474722 24.6081267,17.7385468 24.6081267,12.3048187 C24.6081267,5.50925955 19.0988671,0 12.303308,0" id="Fill-1"></path>
                </g>
            </g>
        </g>
    </g>
</svg>
