<?xml version="1.0" encoding="UTF-8"?>
<svg width="80px" height="181px" viewBox="0 0 80 181" version="1.1" xmlns="http://www.w3.org/2000/svg" xmlns:xlink="http://www.w3.org/1999/xlink">
    <!-- Generator: Sketch 55.1 (78136) - https://sketchapp.com -->
    <title>nearkat_brown_hang</title>
    <desc>Created with Sketch.</desc>
    <defs>
        <radialGradient cx="50.0065359%" cy="50%" fx="50.0065359%" fy="50%" r="51.496732%" gradientTransform="translate(0.500065,0.500000),scale(1.000000,0.944444),translate(-0.500065,-0.500000)" id="radialGradient-1">
            <stop stop-color="#F2F1ED" offset="1%"></stop>
            <stop stop-color="#D1CCBD" offset="96%"></stop>
        </radialGradient>
        <radialGradient cx="49.9981456%" cy="50%" fx="49.9981456%" fy="50%" r="75.3800657%" gradientTransform="translate(0.499981,0.500000),scale(1.000000,0.531043),translate(-0.499981,-0.500000)" id="radialGradient-2">
            <stop stop-color="#F2F1ED" offset="1%"></stop>
            <stop stop-color="#D1CCBD" offset="96%"></stop>
        </radialGradient>
        <radialGradient cx="49.989222%" cy="49.9971009%" fx="49.989222%" fy="49.9971009%" r="59.5871746%" gradientTransform="translate(0.499892,0.499971),scale(0.736857,1.000000),translate(-0.499892,-0.499971)" id="radialGradient-3">
            <stop stop-color="#F2F1ED" offset="1%"></stop>
            <stop stop-color="#D1CCBD" offset="96%"></stop>
        </radialGradient>
        <linearGradient x1="50.0229367%" y1="99.9778908%" x2="50.0229367%" y2="7.85477267e-15%" id="linearGradient-4">
            <stop stop-color="#D1CCBD" offset="0%"></stop>
            <stop stop-color="#F2F1ED" offset="100%"></stop>
        </linearGradient>
        <linearGradient x1="50.0353685%" y1="100%" x2="50.0353685%" y2="-0.00400780264%" id="linearGradient-5">
            <stop stop-color="#4A4F54" offset="0%"></stop>
            <stop stop-color="#4A4F54" stop-opacity="0.5" offset="100%"></stop>
        </linearGradient>
        <linearGradient x1="49.9308131%" y1="99.9353979%" x2="49.9308131%" y2="-0.0686098749%" id="linearGradient-6">
            <stop stop-color="#4A4F54" offset="0%"></stop>
            <stop stop-color="#4A4F54" stop-opacity="0.5" offset="100%"></stop>
        </linearGradient>
        <linearGradient x1="46.7922294%" y1="50.5%" x2="50.7922294%" y2="50.5%" id="linearGradient-7">
            <stop stop-color="#4A4F54" offset="0%"></stop>
            <stop stop-color="#4A4F54" stop-opacity="0.5" offset="100%"></stop>
        </linearGradient>
        <linearGradient x1="0.0160659367%" y1="49.999051%" x2="100.105246%" y2="49.999051%" id="linearGradient-8">
            <stop stop-color="#4A4F54" stop-opacity="0.5" offset="0%"></stop>
            <stop stop-color="#4A4F54" offset="100%"></stop>
        </linearGradient>
        <linearGradient x1="100.010248%" y1="49.999051%" x2="-0.0789554592%" y2="49.999051%" id="linearGradient-9">
            <stop stop-color="#4A4F54" stop-opacity="0.5" offset="0%"></stop>
            <stop stop-color="#4A4F54" offset="100%"></stop>
        </linearGradient>
    </defs>
    <g id="Symbols" stroke="none" stroke-width="1" fill="none" fill-rule="evenodd">
        <g id="Footer" transform="translate(-1156.000000, 0.000000)">
            <g id="Group-14">
                <g transform="translate(1156.000000, 0.000000)">
                    <g id="nearkat_brown_hang">
                        <g id="Group-3" transform="translate(39.500000, 120.000000) scale(-1, 1) translate(-39.500000, -120.000000) translate(9.000000, 58.000000)">
                            <path d="M1.72542373,68.0338983 L53.5898305,68.0338983 C50.5389831,34.4745763 42.7830508,13.1186441 29.9932203,13.1186441 C17.2033898,13.1186441 6.27118644,39.4847458 1.72542373,68.0338983 Z" id="Path" fill="url(#radialGradient-1)"></path>
                            <polygon id="Path" fill="#4A4F54" points="45.2542373 110.745763 45.2542373 119.898305 41.6881356 109.389831 40.5830508 117.305085 37.2745763 105.589831 36.1016949 113.79661 33.0508475 98.5423729"></polygon>
                            <polygon id="Path" fill="#4A4F54" points="14.7457627 113.79661 15.0711864 123.132203 18.4779661 112.569492 19.7050847 120.467797 22.8338983 108.705085 24.1288136 116.891525 26.9491525 101.59322"></polygon>
                            <path d="M45.2542373,28.3728814 L48.9457627,56.6847458 L38.640678,64.7355932 C35.2135593,66.4508475 33.0508475,71.3084746 33.0508475,75.1389831 L33.0508475,98.5288136 L45.2542373,110.732203 L45.2542373,89.5932203 C45.2542373,86.5273644 46.248622,83.5442101 48.0881356,81.0915254 L58.7322034,62.5932203 C60.130528,60.9379967 60.6283317,58.7023133 60.0644068,56.6101695 C58.6135593,51.2474576 57.0576271,45.3627119 55.9457627,41.1322034 C54.9249162,37.2461501 54.407686,33.2450207 54.4067797,29.2271186 L54.4067797,29.2271186 C54.4067797,23.6033898 51.2305085,22.9864407 46.1966102,20.4711864 L45.5830508,20.1627119 C39.7680062,17.2598465 36.0931321,11.3196751 36.0915254,4.82033898 L36.0915254,0.915254237 L23.8983051,0.915254237 L23.8983051,4.82033898 C23.8966984,11.3196751 20.2218243,17.2598465 14.4067797,20.1627119 L13.7932203,20.4711864 C8.76949153,22.9864407 5.59322034,23.6033898 5.59322034,29.2271186 C5.59322034,29.2271186 3.22033898,52.9016949 0.576271186,62.7118644 C0.0108253538,64.8034419 0.507410014,67.0393396 1.90508475,68.6949153 L11.9118644,84.1423729 C13.7495347,86.5182453 14.7463149,89.4370466 14.7457627,92.440678 L14.7457627,113.79661 L26.9491525,101.59322 L26.9491525,77.1864407 C26.9491525,73.6745763 25.1288136,71.4440678 22.2033898,69.6067797 C21.4,69.1084746 20.5864407,68.6271186 19.7966102,68.1050847 L11.6949153,62.7864407 L14.7457627,28.3728814 C18.8980808,24.6590276 24.7386857,23.4909066 30,25.3220339 C30,25.3220339 36.1016949,22.2711864 45.2542373,28.3728814 Z" id="Path" fill="url(#radialGradient-2)"></path>
                            <path d="M23.8983051,4.1220339 L23.8983051,0.915254237 L36.1016949,0.915254237 L36.1016949,4.82033898 C36.102445,9.59394661 38.0924535,14.1513117 41.5932203,17.3966102 C32.220339,14.4881356 26.8237288,8.66101695 23.8983051,4.1220339 Z" id="Path" fill="#4A4F54" opacity="0.1" style="mix-blend-mode: multiply;"></path>
                        </g>
                        <path d="M40,62.1694915 C40,62.1694915 39.0033898,57.7627119 30.5084746,59.6 C22.0135593,61.4372881 19.4067797,58.3220339 19.4067797,58.3220339 L19.0915254,59.6 C12.7864407,57.7254237 10.8949153,53.0440678 10.8949153,53.0440678 L9.82033898,53.8440678 C6.21016949,49.4915254 6.81355932,44.1050847 6.81355932,44.1050847 C2.98983051,42.3423729 0.254237288,36.9932203 0.338983051,30.6983051 C0.440677966,23.0237288 4.69830508,16.8576271 9.84745763,16.9288136 C10.3039378,16.9346386 10.7584915,16.9891851 11.2033898,17.0915254 C12.4270796,17.3749738 13.6736013,16.71853 14.1322034,15.5491525 C16.1186441,10.4338983 20.6440678,7.90508475 20.6440678,7.90508475 L19.9661017,7.22711864 C25.0033898,3.32542373 31.0169492,4.68474576 31.0169492,4.68474576 L30.8474576,3.70508475 C38.7084746,3.70508475 40,7.90508475 40,7.90508475 C40,7.90508475 41.2915254,3.70508475 49.1525424,3.70508475 L48.9830508,4.68474576 C48.9830508,4.68474576 54.9966102,3.32881356 60.040678,7.23728814 L59.3627119,7.91525424 C59.3627119,7.91525424 63.8881356,10.4440678 65.8779661,15.559322 C66.3407042,16.7277608 67.5903889,17.3800211 68.8135593,17.0915254 C69.2584577,16.9891851 69.7130113,16.9346386 70.1694915,16.9288136 C75.3186441,16.8576271 79.5762712,23.0305085 79.6779661,30.6983051 C79.7661017,36.9932203 77.0305085,42.3423729 73.2067797,44.1050847 C73.2067797,44.1050847 73.8101695,49.4915254 70.2169492,53.8440678 L69.1423729,53.0440678 C69.1423729,53.0440678 67.2508475,57.7254237 60.9457627,59.6 L60.6305085,58.3220339 C60.6305085,58.3220339 58.0440678,61.4474576 49.5288136,59.6 C41.0135593,57.7525424 40,62.1694915 40,62.1694915 Z" id="Path" fill="url(#radialGradient-3)"></path>
                        <path d="M53.7288136,31.8271186 L40,30.579661 L26.2711864,31.8271186 C26.2711864,31.8271186 15.8644068,39.3220339 23.3661017,45.6949153 C30.8677966,52.0677966 39.6169492,50.9525424 40,55.8644068 C40.3830508,50.9525424 49.1322034,52.0779661 56.6338983,45.6949153 C64.1355932,39.3118644 53.7288136,31.8271186 53.7288136,31.8271186 Z" id="Path" fill="#D1CCBD"></path>
                        <path d="M47.7966102,26.040678 C41.1932203,22.0711864 40,13.0033898 40,13.0033898 C40,13.0033898 38.8135593,22.0711864 32.2033898,26.040678 C25.5932203,30.0101695 25.3491525,34.5152542 25.3491525,34.5152542 C25.3491525,39.5694915 31.9050847,43.6677966 39.9932203,43.6677966 C48.0813559,43.6677966 54.6374119,39.5694915 54.6374119,34.5152542 C54.6440678,34.5084746 54.3966102,30.0067797 47.7966102,26.040678 Z" id="Path" fill="url(#linearGradient-4)"></path>
                        <path d="M24.7457627,40.6101695 C25.9932203,41.0169492 27.2474576,41.3559322 28.5152542,41.6271186 C29.1457627,41.7762712 29.779661,41.9096045 30.4169492,42.0271186 C30.7355932,42.0813559 31.0508475,42.1423729 31.3661017,42.2033898 L32.3220339,42.359322 C33.6,42.5389831 34.8745763,42.7220339 36.159322,42.8033898 C37.4440678,42.8847458 38.7254237,42.959322 40.0101695,42.9661017 C40.6508475,42.9661017 41.2949153,42.9661017 41.9355932,42.9423729 C42.5762712,42.9186441 43.220339,42.8915254 43.8576271,42.8305085 C45.1457627,42.7627119 46.4169492,42.5728814 47.6949153,42.4067797 C50.2612427,42.0242122 52.7902072,41.4231579 55.2542373,40.6101695 C54.1240058,41.2885284 52.9308957,41.8561355 51.6915254,42.3050847 C50.4514993,42.766016 49.1834006,43.1475778 47.8949153,43.4474576 C47.2474576,43.5864407 46.6033898,43.7423729 45.9457627,43.8338983 L44.9627119,43.9898305 L43.9762712,44.1118644 C43.6372881,44.159322 43.3186441,44.1830508 42.9864407,44.2033898 L41.9932203,44.2711864 C41.3322034,44.2949153 40.6677966,44.3186441 40.0033898,44.3254237 C37.3500853,44.3069642 34.7069384,43.9954707 32.1220339,43.3966102 C30.8338731,43.0997044 29.5658003,42.721547 28.3254237,42.2644068 C27.084833,41.8218914 25.8867456,41.2682298 24.7457627,40.6101695 Z" id="Path" fill="#4A4F54"></path>
                        <path d="M31.7559322,8.27457627 L31.559322,8.27457627 C26.5135843,8.52291465 21.8477298,11.0295537 18.8551527,15.0996426 C15.8625756,19.1697315 14.8612743,24.370773 16.1288136,29.2610169 C18.9754489,28.9600035 21.7547583,28.2010734 24.359322,27.0135593 C21.5667847,25.967442 19.9858164,23.0099443 20.667219,20.106788 C21.3486216,17.2036316 24.0803224,15.2583646 27.0466772,15.5639223 C30.013032,15.8694801 32.2908236,18.330764 32.3661017,21.3118644 C33.8475046,19.777889 35.1716208,18.0994638 36.3186441,16.3016949 C37.3604641,14.6699924 37.4137526,12.5957353 36.4570898,10.9126909 C35.5004269,9.22964657 33.6909256,8.2142218 31.7559322,8.27457627 L31.7559322,8.27457627 Z" id="Path" fill="url(#linearGradient-5)"></path>
                        <path d="M64.3864407,24.220339 C63.9335355,15.6158029 57.0587734,8.74104076 48.4542373,8.28813559 L48.2576271,8.28813559 C46.3226337,8.22778113 44.5131324,9.24320589 43.5564696,10.9262502 C42.5998067,12.6092946 42.6530952,14.6835517 43.6949153,16.3152542 C44.8419385,18.1130231 46.1660547,19.7914483 47.6474576,21.3254237 C47.7227357,18.3443234 50.0005273,15.8830394 52.9668821,15.5774816 C55.9332369,15.2719239 58.6649377,17.217191 59.3463403,20.1203473 C60.0277429,23.0235036 58.4467746,25.9810014 55.6542373,27.0271186 C58.258801,28.2146328 61.0381104,28.9735628 63.8847458,29.2745763 C64.3063263,27.6248455 64.4754782,25.9207548 64.3864407,24.220339 Z" id="Path" fill="url(#linearGradient-6)"></path>
                        <path d="M56.6101695,20.1084746 C55.9606276,20.1141197 55.379413,19.7060273 55.1641461,19.0931678 C54.9488792,18.4803084 55.147229,17.798394 55.6576271,17.3966102 C53.6751571,16.3737359 51.2440169,16.9293458 49.902682,18.7118383 C48.5613471,20.4943308 48.7007069,22.9842553 50.2325717,24.6059363 C51.7644365,26.2276172 54.242393,26.5084674 56.0983393,25.2707589 C57.9542856,24.0330504 58.6473652,21.6374741 57.7389831,19.6 C57.4514993,19.9214291 57.0413982,20.1061593 56.6101695,20.1084746 L56.6101695,20.1084746 Z" id="Path" fill="#4A4F54"></path>
                        <circle id="Oval" fill="#FFFFFF" cx="56.6101695" cy="18.5830508" r="1.52542373"></circle>
                        <circle id="Oval" fill="#FFFFFF" cx="29.3220339" cy="18.5830508" r="1.52542373"></circle>
                        <path d="M18.6440678,4.85423729 C19.4875478,3.73127743 20.5524376,2.79329758 21.7728814,2.09830508 C22.0779661,1.92881356 22.3830508,1.75932203 22.7016949,1.59661017 C23.020339,1.43389831 23.3491525,1.31525424 23.6745763,1.17288136 C24,1.03050847 24.3525424,0.952542373 24.6915254,0.833898305 C25.0305085,0.715254237 25.3694915,0.66779661 25.7254237,0.583050847 C27.1158404,0.296766121 28.5462196,0.261178837 29.9491525,0.477966102 C30.6401808,0.577105968 31.32089,0.738207149 31.9830508,0.959322034 C32.3199353,1.06746557 32.6484894,1.20002014 32.9661017,1.3559322 C33.2813559,1.49830508 33.5932203,1.64745763 33.8983051,1.81016949 C33.559322,1.78983051 33.220339,1.7559322 32.8813559,1.71864407 C32.5445397,1.66576786 32.2050239,1.63181628 31.8644068,1.61694915 C31.1864407,1.58305085 30.5355932,1.51525424 29.8745763,1.54576271 C28.5691083,1.53491446 27.2660523,1.6598806 25.9864407,1.91864407 C25.6711864,1.99322034 25.3491525,2.03728814 25.0372881,2.12881356 L24.0949153,2.37288136 C23.7864407,2.4779661 23.4779661,2.58644068 23.1661017,2.68474576 C22.8542373,2.78305085 22.5559322,2.9220339 22.2440678,3.02372881 C20.997929,3.53856449 19.7942167,4.15062159 18.6440678,4.85423729 L18.6440678,4.85423729 Z" id="Path" fill="#9FA1A5" opacity="0.5"></path>
                        <path d="M46.1016949,1.80338983 C46.4067797,1.64067797 46.7186441,1.49491525 47.0338983,1.34915254 C47.3484069,1.19600804 47.6735427,1.06572713 48.0067797,0.959322034 C48.6693847,0.739771108 49.3499536,0.578703141 50.040678,0.477966102 C51.4464411,0.265984279 52.8785905,0.303853613 54.2711864,0.589830508 C54.6101695,0.674576271 54.9661017,0.728813559 55.3050847,0.837288136 L56.3220339,1.17627119 C56.6610169,1.31525424 56.9728814,1.45423729 57.2949153,1.6 C57.6169492,1.74576271 57.9186441,1.93898305 58.2271186,2.09830508 C59.4475624,2.79329758 60.5124522,3.73127743 61.3559322,4.85423729 C60.2038075,4.15980628 58.9989816,3.55682665 57.7525424,3.05084746 C57.4440678,2.93559322 57.1423729,2.81016949 56.8338983,2.71186441 C56.5254237,2.61355932 56.2135593,2.50508475 55.9050847,2.4 L54.9627119,2.14576271 C54.6508475,2.04745763 54.3288136,2.00677966 54.0135593,1.93220339 C52.7355472,1.66972857 51.4334616,1.54247413 50.1288136,1.55254237 C49.4647594,1.542579 48.8006276,1.5663384 48.1389831,1.62372881 C47.7978061,1.62834903 47.4571573,1.65211522 47.1186441,1.69491525 C46.779661,1.74915254 46.440678,1.78305085 46.1016949,1.80338983 Z" id="Path" fill="#9FA1A5" opacity="0.5"></path>
                        <path d="M30.5084746,19.5355932 C30.1524615,19.9903198 29.5697597,20.2043868 29.0040388,20.0882775 C28.4383179,19.9721682 27.9870422,19.5458862 27.8389226,18.9876908 C27.690803,18.4294954 27.8713581,17.8355544 28.3050847,17.4542373 C26.2631763,16.5419729 23.8610124,17.2354394 22.6194556,19.0955881 C21.3778988,20.9557369 21.6589904,23.4401431 23.2847653,24.9758751 C24.9105402,26.5116071 27.4069177,26.6508409 29.1933868,25.3054247 C30.979856,23.9600085 31.5354772,21.5222694 30.5084746,19.5355932 L30.5084746,19.5355932 Z" id="Path" fill="#4A4F54"></path>
                        <path d="M6.81355932,44.1050847 C6.81355932,44.1050847 6.81355932,44.1762712 6.81355932,44.3050847 C6.80338983,44.2372881 6.81016949,44.1762712 6.81355932,44.1050847 Z" id="Path" fill="url(#linearGradient-7)"></path>
                        <path d="M12.7661017,22.0745763 C11.1661017,21.2135593 2.62372881,17.2610169 0.396610169,29.4338983 C0.366101695,29.8508475 0.338983051,30.2711864 0.338983051,30.6983051 C0.250847458,36.9932203 2.98644068,42.3423729 6.81016949,44.1050847 C7.33898305,33.8983051 13.220339,29.2610169 13.220339,29.2610169 C12.6894475,26.9046875 12.5361257,24.4789983 12.7661017,22.0745763 Z" id="Path" fill="url(#linearGradient-8)"></path>
                        <path d="M67.2338983,22.0745763 C68.8338983,21.2135593 77.3762712,17.2610169 79.6033898,29.4338983 C79.6338983,29.8508475 79.6542373,30.2711864 79.6576271,30.6983051 C79.7457627,36.9932203 77.0101695,42.3423729 73.1864407,44.1050847 C72.6610169,33.8983051 66.779661,29.2610169 66.779661,29.2610169 C67.3105525,26.9046875 67.4638743,24.4789983 67.2338983,22.0745763 Z" id="Path" fill="url(#linearGradient-9)"></path>
                        <path d="M47.159322,31.6576271 C47.0688894,30.6746361 46.5765445,29.7726209 45.7986914,29.164843 C45.0208384,28.5570651 44.0265296,28.2974788 43.0508475,28.4474576 C41.0385911,28.7367235 38.9953072,28.7367235 36.9830508,28.4474576 C36.0047349,28.2923391 35.0058767,28.5495308 34.2241323,29.1578396 C33.442388,29.7661485 32.9476489,30.6711891 32.8576271,31.6576271 C32.8576271,31.7559322 32.8576271,31.8508475 32.8576271,31.9457627 C32.8576271,34.9152542 36.0677966,37.3220339 40.0271186,37.3220339 C43.9864407,37.3220339 47.1966102,34.9152542 47.1966102,31.9457627 C47.1694915,31.8644068 47.1661017,31.7559322 47.159322,31.6576271 Z" id="Path" fill="#4A4F54"></path>
                        <path d="M36.9220339,33.620339 C36.4169492,33.620339 35.9966102,33.1525424 35.8813559,32.5254237 C35.8595044,32.6371129 35.8481555,32.7506023 35.8474576,32.8644068 C35.8474576,33.6576271 36.3288136,34.2983051 36.9220339,34.2983051 C37.5152542,34.2983051 38,33.6576271 38,32.8644068 C37.9993021,32.7506023 37.9879532,32.6371129 37.9661017,32.5254237 C37.8508475,33.1525424 37.4305085,33.620339 36.9220339,33.620339 Z M44.1525424,32.5423729 C44.040678,33.1694915 43.6169492,33.6372881 43.1118644,33.6372881 C42.6067797,33.6372881 42.1830508,33.1525424 42.0677966,32.5423729 C42.0459451,32.654062 42.0345962,32.7675514 42.0338983,32.8813559 C42.0338983,33.6745763 42.5186441,34.3152542 43.1118644,34.3152542 C43.7050847,34.3152542 44.1864407,33.6745763 44.1864407,32.8813559 C44.1857428,32.7675514 44.1743939,32.654062 44.1525424,32.5423729 L44.1525424,32.5423729 Z" id="Shape" fill="#D1CCBD" fill-rule="nonzero" opacity="0.5"></path>
                        <g id="Group" opacity="0.1" transform="translate(39.322034, 77.966102)" fill="#4A4F54">
                            <path d="M0.677966102,0.108474576 C0.888135593,3.83728814 1.01694915,7.59322034 1.07457627,11.3355932 C1.11864407,13.2067797 1.13220339,15.0644068 1.15932203,16.9491525 L1.18644068,22.5627119 L1.15932203,28.1762712 C1.13220339,30.0474576 1.1220339,31.9050847 1.07457627,33.7898305 C1,37.5186441 0.888135593,41.2745763 0.677966102,45.0169492 C0.46779661,41.2881356 0.338983051,37.5322034 0.281355932,33.7898305 C0.233898305,31.9186441 0.223728814,30.0610169 0.196610169,28.1762712 L0.169491525,22.5627119 L0.196610169,16.9491525 C0.227118644,15.0779661 0.237288136,13.220339 0.281355932,11.3355932 C0.355932203,7.59322034 0.46779661,3.85084746 0.677966102,0.108474576 Z" id="Path"></path>
                        </g>
                    </g>
                </g>
            </g>
        </g>
    </g>
</svg>